<svg width="107" height="32" viewBox="0 0 107 32" fill="none" xmlns="http://www.w3.org/2000/svg">
<g clip-path="url(#clip0_1301_54911)">
<path d="M89.6109 6.99984H89.339C87.583 6.98005 85.8653 7.51616 84.4298 8.53207C82.6047 9.77744 81.4929 11.5038 81.026 13.6578C80.8736 14.3339 80.8047 15.0262 80.8207 15.7191C80.8571 16.8714 81.1261 18.0043 81.6114 19.049C82.0967 20.0938 82.7883 21.0287 83.6441 21.7971C84.4999 22.5655 85.5022 23.1514 86.5902 23.5192C87.6782 23.887 88.8293 24.0291 89.9736 23.9369C91.5445 23.814 93.0489 23.248 94.3136 22.3041C95.5782 21.3602 96.5516 20.0767 97.1217 18.6015C97.6146 17.3403 97.8102 15.9816 97.693 14.6318C97.5784 13.3143 97.1322 12.0476 96.3965 10.9507C96.1843 10.6255 95.956 10.3113 95.7123 10.0093C94.662 8.72446 93.5314 7.51001 92.4093 6.28869C91.001 4.75416 89.5471 3.26545 88.0476 1.82253C87.9605 1.75888 87.8891 1.67602 87.8389 1.58033C87.9175 1.5099 87.9979 1.53911 88.0715 1.53911C89.3595 1.53911 90.6492 1.53911 91.9372 1.53911C92.1229 1.53635 92.307 1.57233 92.4781 1.64477C92.6492 1.71722 92.8034 1.82454 92.931 1.95995C93.7538 2.80509 94.5868 3.64163 95.4112 4.48505C96.2357 5.32847 97.0071 6.13066 97.8059 6.95002C99.007 8.14887 99.9446 9.5872 100.558 11.1723C100.924 12.1326 101.171 13.1348 101.292 14.156C101.397 15.011 101.408 15.8751 101.326 16.7326C101.072 19.5826 99.8106 22.2472 97.77 24.2444C96.3524 25.6568 94.6099 26.6964 92.6967 27.271C92.1497 27.4557 91.5908 27.6027 91.0238 27.7108C90.1369 27.8655 89.2344 27.9099 88.3366 27.843C86.3696 27.6713 84.5941 26.9584 82.9144 25.9535C81.4933 25.0829 80.2669 23.9267 79.312 22.5575C78.3571 21.1883 77.6944 19.6356 77.3655 17.9969C77.1652 17.0129 77.0853 16.008 77.1277 15.0046C77.2192 13.0685 77.7697 11.1823 78.7333 9.50292C79.697 7.82352 81.0459 6.39944 82.668 5.34908C83.7575 4.63522 84.9567 4.10651 86.2173 3.78421C86.2721 3.77046 86.3234 3.75329 86.3781 3.74126C86.4212 3.72952 86.4667 3.73058 86.5092 3.74429C86.5517 3.75801 86.5894 3.78381 86.6176 3.81856C86.6467 3.85292 86.6792 3.88384 86.7099 3.91647C87.5994 4.85093 88.4894 5.78596 89.38 6.72156C89.4467 6.79199 89.5066 6.86757 89.6195 6.99984" fill="#CC336C"/>
<path d="M102.972 19.1873C103.221 18.3705 103.392 17.532 103.485 16.6828C103.574 15.8512 103.578 15.0125 103.497 14.18C103.407 13.3211 103.24 12.472 102.999 11.6429C103.055 11.6703 103.109 11.7013 103.162 11.7357C103.69 12.196 106.837 15.2949 106.998 15.5147C105.698 16.7217 104.394 17.9287 103.086 19.1358C103.05 19.1572 103.012 19.1739 102.972 19.1856" fill="#CC336C"/>
<path d="M39.9331 12.5018C39.9485 12.3541 39.9656 12.2459 39.9707 12.1376C39.9793 11.904 39.9707 11.6704 39.993 11.4385C39.9898 11.3829 39.9988 11.3272 40.0194 11.2755C40.04 11.2237 40.0716 11.1772 40.1121 11.139C40.1525 11.1009 40.2008 11.0721 40.2535 11.0547C40.3062 11.0373 40.3621 11.0317 40.4172 11.0383C40.997 11.028 41.5769 11.0383 42.1567 11.0383C42.208 11.0345 42.2595 11.0413 42.3081 11.0581C42.3567 11.075 42.4013 11.1015 42.4394 11.1362C42.4775 11.1709 42.5081 11.213 42.5295 11.26C42.5509 11.3069 42.5626 11.3577 42.5638 11.4093C42.5818 11.5229 42.5898 11.6379 42.5878 11.7529C42.5878 15.7289 42.5878 19.7049 42.5878 23.6809C42.6038 24.6285 42.498 25.5742 42.273 26.4946C42.0871 27.2446 41.7908 27.9625 41.3939 28.6246C40.9056 29.4563 40.2451 30.1731 39.4572 30.7264C38.6693 31.2796 37.7723 31.6566 36.8268 31.8317C34.5485 32.2869 32.4514 31.8179 30.5391 30.5004C29.8516 30.0327 29.269 29.426 28.8286 28.7191C28.7974 28.6697 28.7688 28.6187 28.743 28.5662C28.7328 28.5396 28.7254 28.512 28.7208 28.4838C28.7297 28.4566 28.743 28.4311 28.7601 28.4082C29.1689 27.9942 29.5726 27.5768 29.9883 27.1697C30.2585 26.9052 30.4723 26.9258 30.7238 27.2126C30.7905 27.2899 30.8504 27.3724 30.9171 27.4497C31.3941 28.0218 31.9798 28.4928 32.64 28.8352C33.3001 29.1776 34.0216 29.3845 34.7623 29.444C36.7037 29.6037 38.2465 28.8617 39.2369 27.1182C39.6212 26.4135 39.857 25.637 39.9297 24.837C39.9365 24.7501 39.9365 24.6628 39.9297 24.5759C39.9297 24.5536 39.9006 24.5329 39.8801 24.502C39.7552 24.502 39.6816 24.6034 39.5944 24.6738C38.671 25.3877 37.5945 25.8753 36.4505 26.0978C34.3689 26.5015 32.4428 26.1442 30.7084 24.8954C29.4922 24.0176 28.5173 22.9303 27.9853 21.5114C27.0462 19.0069 27.1471 16.5626 28.613 14.2745C29.718 12.5568 31.2729 11.399 33.2758 10.9387C35.5354 10.4233 37.6188 10.8614 39.5072 12.2167C39.6354 12.3299 39.7773 12.4262 39.9297 12.5035L39.9331 12.5018ZM35 23.7239C35.8359 23.7565 36.6636 23.5472 37.3845 23.121C39.538 21.7467 40.3299 19.7078 39.892 17.3596C39.6733 16.2475 39.0904 15.2407 38.2363 14.4996C36.9072 13.2799 35.3592 13.0189 33.6607 13.4517C32.9161 13.6685 32.2393 14.0737 31.6953 14.6284C30.2158 16.0249 29.7197 17.7461 30.1474 19.7181C30.4587 21.1541 31.3139 22.2346 32.542 23.0179C33.27 23.4991 34.127 23.7454 34.9983 23.7239" fill="#422471"/>
<path d="M68.2711 12.5344C68.3051 12.3325 68.3148 12.1272 68.3002 11.9229C68.307 11.75 68.3259 11.5778 68.3566 11.4076C68.369 11.3347 68.4064 11.2686 68.4624 11.2205C68.5183 11.1725 68.5892 11.1457 68.6628 11.1448C68.7346 11.1448 68.8082 11.1276 68.88 11.1276C69.3727 11.1276 69.8653 11.1276 70.3579 11.1276C70.7428 11.1276 70.883 11.2753 70.8984 11.6429C70.8984 11.7443 70.8984 11.8456 70.8984 11.9487V25.05C70.8984 25.1822 70.8984 25.3128 70.8984 25.4433C70.8728 25.7285 70.7376 25.8831 70.4622 25.8882C69.883 25.8997 69.3031 25.8997 68.7227 25.8882C68.6677 25.891 68.6127 25.8821 68.5614 25.862C68.5101 25.8419 68.4636 25.8112 68.4249 25.7717C68.3863 25.7323 68.3564 25.6851 68.3373 25.6332C68.3182 25.5814 68.3102 25.526 68.3139 25.4708C68.3002 25.2664 68.3139 25.062 68.3139 24.8593C68.3139 24.7322 68.3019 24.6034 68.2968 24.4728C68.1377 24.4402 68.0675 24.5501 67.9837 24.6188C67.3445 25.1494 66.6133 25.5571 65.8268 25.8213C63.1157 26.6715 60.6423 26.2558 58.4717 24.3594C57.2092 23.284 56.335 21.8205 55.9846 20.1956C55.1088 16.164 57.5583 11.7511 62.0586 10.8923C63.379 10.6407 64.7433 10.7711 65.9927 11.2684C66.7137 11.5381 67.3915 11.9126 68.0043 12.3798C68.0624 12.4245 68.1206 12.4657 68.1753 12.5069C68.1856 12.5069 68.2027 12.5069 68.2711 12.5327V12.5344ZM68.3549 18.4624C68.3412 18.2769 68.3275 18.0587 68.3104 17.8423C68.3104 17.7547 68.2933 17.6705 68.2779 17.5812C67.9136 15.6917 66.8155 14.3913 65.0896 13.6063C64.3916 13.2967 63.619 13.1976 62.8659 13.3212C62.1362 13.4309 61.4379 13.6944 60.8167 14.0944C60.1956 14.4944 59.6657 15.0218 59.2619 15.6419C58.858 16.2621 58.5894 16.961 58.4735 17.6928C58.3577 18.4246 58.3973 19.1728 58.5897 19.8881C58.8806 20.9644 59.51 21.9176 60.384 22.6056C61.6224 23.6363 63.037 23.906 64.5867 23.5744C65.3389 23.3909 66.0297 23.0117 66.5897 22.4751C67.787 21.4186 68.3412 20.0805 68.3549 18.4641" fill="#422471"/>
<path d="M15.9027 23.0007C16.3983 23.3618 16.9692 23.605 17.5721 23.7118C18.7421 23.9197 19.8146 23.6294 20.8221 23.0454C21.2706 22.7758 21.6789 22.4438 22.0348 22.0594C22.1152 21.9752 22.1922 21.8876 22.2794 21.812C22.3519 21.7386 22.4497 21.696 22.5526 21.6931C22.6555 21.6903 22.7555 21.7273 22.8319 21.7966C22.9305 21.8821 23.0247 21.9727 23.1141 22.068C23.4443 22.396 23.7744 22.7241 24.0994 23.0557C24.1378 23.0837 24.1703 23.1191 24.1949 23.1599C24.2196 23.2007 24.2359 23.246 24.2429 23.2932C24.2499 23.3404 24.2475 23.3885 24.2358 23.4347C24.224 23.4809 24.2033 23.5243 24.1747 23.5624C24.1276 23.6503 24.0702 23.7322 24.0036 23.8063C22.8901 25.0397 21.549 25.8796 19.8984 26.1854C19.0988 26.3327 18.2817 26.3576 17.4746 26.2593C16.6226 26.1696 15.7942 25.9239 15.0304 25.5344C14.7842 25.4103 14.547 25.2691 14.3205 25.1118C12.7212 23.9764 11.5409 22.518 11.0141 20.5976C9.97413 16.8031 11.7428 13.4122 14.6061 11.7477C15.8597 11.0248 17.2932 10.6779 18.737 10.748C20.5547 10.8075 22.2825 11.5563 23.5726 12.8436C23.8343 13.0961 24.0857 13.359 24.3166 13.6407C24.592 13.9619 24.5852 14.1302 24.2927 14.4326C23.6085 15.13 22.9243 15.8222 22.2486 16.5179C20.2211 18.5792 18.1953 20.6405 16.1713 22.7018C16.0909 22.7843 16.0156 22.8736 15.9027 22.9938V23.0007ZM20.9196 14.156C20.8785 13.9842 20.7571 13.9602 20.6596 13.9052C19.8167 13.4434 18.8603 13.2324 17.9023 13.2971C17.3359 13.3193 16.7827 13.4752 16.2876 13.7523C15.8187 14.0138 15.3814 14.3285 14.9842 14.6902C14.2729 15.3193 13.7599 16.1431 13.508 17.0607C13.3573 17.6685 13.3065 18.2968 13.3575 18.921C13.4019 19.6195 13.5968 20.3 13.9288 20.9153C13.9802 20.9972 14.0374 21.0753 14.0998 21.149C16.4005 18.7939 18.6634 16.4715 20.9196 14.156Z" fill="#422471"/>
<path d="M0.155847 0.0559649C0.268909 0.0343552 0.383139 0.0194425 0.497946 0.0113037C1.10688 0.0113037 1.71582 -0.00415608 2.32475 0.0113037C2.76606 0.0198924 2.87895 0.145288 2.89435 0.595339C2.89435 0.75509 2.89435 0.914841 2.89435 1.07631C2.89435 2.88109 2.89435 4.68702 2.89435 6.4941C2.89435 6.65213 2.89435 6.81017 2.89435 6.95617C3.0258 7.03704 3.18296 7.06468 3.33395 7.03347C4.62366 7.03347 5.91508 7.03347 7.20651 7.03347C7.3365 7.03347 7.46821 7.03347 7.59821 7.03347C7.90439 7.06267 8.0532 7.20525 8.05833 7.50414C8.07031 8.13112 8.07031 8.75638 8.05833 9.38336C8.05833 9.67366 7.91636 9.79218 7.61703 9.80764C7.39979 9.81967 7.18256 9.80764 6.96362 9.80764H3.36816C3.23987 9.80764 3.11158 9.81795 2.95764 9.82482C2.93514 9.90779 2.918 9.99214 2.90632 10.0773C2.89606 10.2079 2.90632 10.3401 2.90632 10.4707C2.90632 13.1046 2.90632 15.7385 2.90632 18.3724C2.90632 18.7159 2.90632 19.0715 2.92001 19.4202C2.93439 19.8137 3.01178 20.2023 3.14921 20.5711C3.84196 22.5465 5.44128 23.5187 7.26637 23.5771C7.41177 23.5771 7.55716 23.5771 7.70084 23.5909C7.80361 23.5948 7.90157 23.6356 7.97691 23.7059C8.05225 23.7762 8.09996 23.8713 8.11136 23.9739C8.12425 24.0603 8.1294 24.1477 8.12675 24.235C8.12675 24.7143 8.12675 25.1953 8.12675 25.6762C8.12675 25.7346 8.12675 25.793 8.12675 25.848C8.09425 26.2036 7.96768 26.3633 7.6136 26.3547C7.13503 26.3594 6.65669 26.3313 6.18192 26.2706C4.13959 26.0095 2.54028 24.9874 1.32754 23.3384C0.628047 22.3822 0.196834 21.2551 0.0788743 20.0746C0.0267016 19.5828 0.00100662 19.0885 0.00190187 18.5939C0.00190187 12.8544 0.00190187 7.11593 0.00190187 1.37863C0.00190187 1.13128 0.00190187 0.883922 0.00190187 0.636565C-0.00920224 0.431314 0.0453386 0.227874 0.157557 0.0559649" fill="#422471"/>
<path d="M48.1558 11.7202C48.2994 11.6446 48.414 11.5862 48.5252 11.5227C49.2972 11.0802 50.1649 10.8331 51.0533 10.8029C52.2877 10.7539 53.4963 11.1664 54.4452 11.9607C54.7788 12.2287 54.8215 12.476 54.5889 12.835C54.2468 13.3504 53.9047 13.8399 53.5626 14.3398C53.3386 14.3252 53.1262 14.2343 52.9605 14.0821C52.7448 13.9125 52.516 13.7603 52.2763 13.6269C51.9112 13.4278 51.5019 13.3248 51.0864 13.3275C50.671 13.3302 50.2629 13.4385 49.9005 13.6424C48.763 14.2505 48.1609 15.2004 48.1335 16.4904C48.113 17.5211 48.1335 18.5517 48.1335 19.5927C48.1335 21.5395 48.1335 23.4908 48.1335 25.4468C48.1327 25.4617 48.1327 25.4766 48.1335 25.4915C48.1575 25.8556 48.0668 26.1081 47.5502 26.1116C47.1021 26.1116 46.6522 26.1116 46.2024 26.1116C46.1298 26.1124 46.0573 26.109 45.9852 26.1013C45.6704 26.0617 45.5558 25.9415 45.5336 25.6203C45.5336 25.5052 45.5336 25.3884 45.5336 25.2767V11.9452C45.5336 11.8284 45.5336 11.7116 45.5336 11.6017C45.531 11.5394 45.5416 11.4772 45.5646 11.4193C45.5876 11.3613 45.6225 11.3089 45.6671 11.2655C45.7116 11.222 45.7648 11.1885 45.8232 11.1671C45.8815 11.1457 45.9437 11.1369 46.0057 11.1413C46.2383 11.1293 46.4709 11.1413 46.7018 11.1413C46.9636 11.1413 47.2253 11.1413 47.4852 11.1413C47.9984 11.1413 48.0446 11.1877 48.178 11.7305" fill="#422471"/>
</g>
<defs>
<clipPath id="clip0_1301_54911">
<rect width="107" height="32" fill="white"/>
</clipPath>
</defs>
</svg>
